<svg xmlns="http://www.w3.org/2000/svg" width="27.083" height="25"><defs><linearGradient id="a" x1=".5" x2=".5" y2="1" gradientUnits="objectBoundingBox"><stop offset="0" stop-color="#ee0979"/><stop offset="1" stop-color="#ff6a00"/></linearGradient></defs><path d="M61.542 74.724A2.681 2.681 0 1064.25 77.4a2.7 2.7 0 00-2.708-2.676zm8.125 2.676a8.125 8.125 0 10-12.188 6.971l1.355-2.346a5.288 5.288 0 01-2.709-4.625 5.417 5.417 0 0110.833 0 5.288 5.288 0 01-2.708 4.63l1.35 2.346a8.069 8.069 0 004.067-6.976zM61.542 64A13.513 13.513 0 0048 77.4 13.354 13.354 0 0054.771 89l1.354-2.346a10.657 10.657 0 01-5.417-9.254 10.834 10.834 0 0121.668 0 10.576 10.576 0 01-5.417 9.249L68.313 89a13.354 13.354 0 006.771-11.6A13.513 13.513 0 0061.542 64z" transform="translate(-48 -64)" fill="url(#a)"/></svg>